<?xml version="1.0" standalone="no"?>
<!DOCTYPE svg PUBLIC "-//W3C//DTD SVG 20010904//EN"
 "http://www.w3.org/TR/2001/REC-SVG-20010904/DTD/svg10.dtd">
<svg version="1.0" xmlns="http://www.w3.org/2000/svg"
 width="700.000000pt" height="700.000000pt" viewBox="0 0 700.000000 700.000000"
 preserveAspectRatio="xMidYMid meet">
<metadata>
Created by potrace 1.14, written by Peter Selinger 2001-2017
</metadata>
<g transform="translate(0.000000,700.000000) scale(0.100000,-0.100000)"
fill="#000000" stroke="none">
<path d="M3478 6825 c-1 -1 -66 -6 -143 -9 -77 -3 -156 -8 -175 -11 -19 -3
-55 -7 -80 -10 -25 -3 -56 -7 -70 -9 -14 -3 -43 -8 -64 -11 -36 -5 -151 -29
-201 -41 -11 -3 -31 -7 -45 -10 -14 -3 -56 -14 -95 -25 -542 -156 -1011 -430
-1416 -829 -94 -92 -130 -130 -223 -240 -32 -37 -89 -111 -106 -136 -8 -12
-48 -69 -87 -127 -40 -58 -81 -121 -92 -139 -10 -18 -34 -60 -53 -94 -138
-241 -287 -628 -334 -869 -2 -11 -6 -31 -9 -45 -8 -36 -43 -248 -49 -295 -26
-202 -27 -600 -1 -775 2 -14 7 -45 10 -70 5 -39 12 -78 31 -190 3 -14 19 -81
35 -149 177 -724 611 -1378 1215 -1832 104 -78 213 -151 339 -226 65 -38 277
-144 335 -167 25 -10 59 -24 75 -31 118 -52 317 -113 540 -166 52 -12 195 -36
265 -44 30 -3 69 -9 85 -11 54 -10 558 -13 620 -4 33 5 87 11 120 14 181 17
598 117 730 175 11 5 67 28 125 51 319 130 630 324 896 556 375 327 665 723
861 1174 56 131 128 334 148 419 3 9 13 50 24 91 11 41 23 93 27 115 3 22 7
42 9 45 2 3 6 26 10 50 3 25 8 52 10 60 2 8 7 40 11 70 3 30 8 66 9 80 24 191
24 633 1 757 -3 11 -7 44 -11 73 -4 29 -8 60 -10 69 -1 9 -6 36 -10 61 -25
161 -116 475 -192 659 -47 115 -158 339 -214 429 -24 40 -53 87 -64 106 -127
208 -420 545 -620 711 -33 28 -66 55 -72 62 -41 38 -223 167 -330 234 -323
203 -735 369 -1078 435 -11 2 -31 6 -45 9 -14 3 -43 7 -65 10 -22 3 -51 8 -65
10 -14 3 -47 7 -75 11 -27 3 -61 8 -75 10 -14 2 -95 6 -180 9 -85 4 -160 8
-167 10 -6 2 -13 2 -15 0z"/>
</g>
</svg>
